<svg width="7" height="10" viewBox="0 0 7 10" fill="none" xmlns="http://www.w3.org/2000/svg">
<path d="M0.223333 9.11919C0.290736 9.15425 0.366413 9.17029 0.442243 9.16559C0.518072 9.16089 0.591191 9.13563 0.65375 9.09252L6.07042 5.34252C6.12577 5.30418 6.171 5.25299 6.20224 5.19334C6.23348 5.13369 6.2498 5.06736 6.2498 5.00002C6.2498 4.93269 6.23348 4.86636 6.20224 4.80671C6.171 4.74706 6.12577 4.69587 6.07042 4.65752L0.65375 0.907522C0.591239 0.864269 0.518087 0.838941 0.442214 0.83428C0.366341 0.829619 0.290639 0.845803 0.223304 0.88108C0.155969 0.916357 0.0995679 0.969382 0.0602071 1.03441C0.0208462 1.09945 2.56597e-05 1.17401 5.65963e-09 1.25002V8.75002C-1.25281e-05 8.82608 0.0207929 8.90069 0.0601614 8.96577C0.0995298 9.03084 0.155959 9.0839 0.223333 9.11919Z" fill="#195557"/>
</svg>
