<svg width="24" height="24" viewBox="0 0 24 24" fill="none" xmlns="http://www.w3.org/2000/svg">
<path d="M10.8829 23.9338L23.6325 12.8076C23.7478 12.707 23.8404 12.5827 23.9038 12.443C23.9672 12.3033 24 12.1516 24 11.998C24 11.8445 23.9672 11.6927 23.9038 11.553C23.8404 11.4134 23.7478 11.289 23.6325 11.1884L10.8829 0.0655714C10.8445 0.0319603 10.7973 0.0101668 10.7469 0.00278717C10.6965 -0.00459244 10.645 0.00275272 10.5987 0.0239476C10.5523 0.0451425 10.513 0.079294 10.4854 0.122334C10.4578 0.165374 10.443 0.215489 10.443 0.266708L10.443 2.98206C10.443 3.13626 10.5096 3.28376 10.6263 3.38768L19.036 10.7258L0.266656 10.7258C0.119995 10.7258 -2.38146e-06 10.8465 -2.38791e-06 10.994L-2.47583e-06 13.0054C-2.48228e-06 13.1529 0.119995 13.2736 0.266656 13.2736L19.036 13.2736L10.6263 20.6117C10.5096 20.7123 10.443 20.8598 10.443 21.0173L10.443 23.7327C10.443 23.9606 10.7096 24.0847 10.8829 23.9338Z" fill="#70908B"/>
</svg>
