<svg width="30" height="30" viewBox="0 0 30 30" fill="none" xmlns="http://www.w3.org/2000/svg">
<path d="M25.59 4.37333C22.6733 1.47167 19.11 0 15 0C10.8517 0 7.27833 1.47333 4.37833 4.375C1.47333 7.27667 0 10.8533 0 15C0 19.1083 1.47167 22.6717 4.37333 25.59C7.275 28.5167 10.85 30 15 30C19.1117 30 22.675 28.5167 25.5933 25.595C28.5183 22.6733 30 19.1083 30 15C30 10.8533 28.5167 7.27667 25.59 4.37333ZM23.2367 23.2383C21.3417 25.1367 19.1767 26.2183 16.6667 26.5467V18.3333H20V15H16.6667V12.6667C16.6667 12.5352 16.6926 12.405 16.7429 12.2836C16.7933 12.1622 16.8671 12.0518 16.9601 11.959C17.0532 11.8661 17.1636 11.7925 17.2851 11.7423C17.4067 11.6922 17.5369 11.6664 17.6683 11.6667H20V8.33333H17.6717C16.435 8.33333 15.4033 8.78833 14.5767 9.70333C13.75 10.615 13.3333 11.7283 13.3333 13.05V15H10V18.3333H13.3333V26.55C10.7967 26.225 8.62333 25.1417 6.73833 23.2433C4.44667 20.9367 3.33333 18.24 3.33333 15C3.33333 11.7233 4.445 9.02 6.73667 6.73333C9.02 4.445 11.7233 3.33333 15 3.33333C18.2417 3.33333 20.9367 4.44667 23.2417 6.73833C25.5467 9.025 26.6667 11.7283 26.6667 15C26.6667 18.235 25.545 20.9317 23.2367 23.2383Z" fill="white"/>
</svg>
