<svg width="37" height="33" viewBox="0 0 37 33" fill="none" xmlns="http://www.w3.org/2000/svg">
<path d="M35.7588 6.90898C35.1959 5.6057 34.3843 4.42468 33.3694 3.43203C32.3538 2.43642 31.1563 1.64522 29.8421 1.10146C28.4793 0.53538 27.0177 0.245626 25.5421 0.249022C23.4719 0.249022 21.4521 0.815917 19.6968 1.88672C19.2769 2.14287 18.8779 2.42422 18.5 2.73076C18.1221 2.42422 17.7231 2.14287 17.3032 1.88672C15.5479 0.815917 13.5281 0.249022 11.4579 0.249022C9.96719 0.249022 8.52266 0.534569 7.15791 1.10146C5.83936 1.64736 4.65098 2.43262 3.63057 3.43203C2.61434 4.42356 1.80255 5.60486 1.24121 6.90898C0.65752 8.26533 0.359375 9.70566 0.359375 11.188C0.359375 12.5863 0.644922 14.0435 1.21182 15.5258C1.68633 16.7645 2.3666 18.0495 3.23584 19.3471C4.61318 21.4005 6.50703 23.5421 8.85859 25.7131C12.7555 29.3118 16.6146 31.7977 16.7783 31.8985L17.7735 32.5368C18.2145 32.8182 18.7813 32.8182 19.2223 32.5368L20.2175 31.8985C20.3813 31.7936 24.2361 29.3118 28.1372 25.7131C30.4888 23.5421 32.3826 21.4005 33.76 19.3471C34.6292 18.0495 35.3137 16.7645 35.784 15.5258C36.3509 14.0435 36.6364 12.5863 36.6364 11.188C36.6406 9.70566 36.3425 8.26533 35.7588 6.90898ZM18.5 29.2152C18.5 29.2152 3.55078 19.6368 3.55078 11.188C3.55078 6.90898 7.09072 3.44043 11.4579 3.44043C14.5275 3.44043 17.1898 5.15371 18.5 7.65644C19.8102 5.15371 22.4725 3.44043 25.5421 3.44043C29.9093 3.44043 33.4492 6.90898 33.4492 11.188C33.4492 19.6368 18.5 29.2152 18.5 29.2152Z" fill="#195557"/>
</svg>
