<svg width="37" height="22" viewBox="0 0 37 22" fill="none" xmlns="http://www.w3.org/2000/svg">
<path d="M11.9303 4.16882C11.4429 5.45007 10.8865 6.04457 10.4418 6.49557C10.2896 6.6523 10.085 6.74743 9.86716 6.76277C9.64926 6.7781 9.43337 6.71257 9.26076 6.57871L8.58654 6.05141L6.63676 8.92938C6.50995 9.11654 6.33922 9.26979 6.13949 9.37571C5.93976 9.48163 5.71712 9.537 5.49104 9.53697C5.49104 9.53697 3.96948 11.3996 3.4399 13.4126C3.29184 13.9769 2.93765 14.4661 2.46957 14.8146L2.25261 14.9769C2.25261 14.9769 0.914413 16.0941 2.5117 16.5799C2.5117 16.5799 7.99147 18.3104 11.0283 15.8903" stroke="black" stroke-width="2" stroke-miterlimit="10" stroke-linecap="round" stroke-linejoin="round"/>
<path d="M21.5631 1.70142C21.5631 1.70142 20.5244 2.40012 19.7409 2.54932C19.4049 2.61367 19.0792 2.68029 18.7643 2.74862L16.9603 2.36596C16.0657 3.38811 14.8226 3.87498 13.9473 4.25879" stroke="black" stroke-width="2" stroke-miterlimit="10" stroke-linecap="round" stroke-linejoin="round"/>
<path d="M32.1456 5.40285C31.0147 5.40285 30.6935 5.31572 30.0557 4.80094C29.5612 4.40309 29.1422 3.91952 28.8189 3.37335L28.5866 2.98043C27.0826 2.98043 25.4734 2.79821 24.0037 2.55676" stroke="black" stroke-width="2" stroke-miterlimit="10" stroke-linecap="round" stroke-linejoin="round"/>
<path d="M35.728 10.9236C33.965 10.2665 33.7156 8.4095 33.1324 7.65784" stroke="black" stroke-width="2" stroke-miterlimit="10" stroke-linecap="round" stroke-linejoin="round"/>
<path d="M9.85469 18.4659L9.72543 18.7352C9.64192 18.9088 9.60381 19.1008 9.61466 19.2931C9.62552 19.4854 9.68499 19.6719 9.7875 19.835C9.89002 19.9981 10.0322 20.1325 10.2008 20.2257C10.3694 20.3189 10.5589 20.3678 10.7516 20.3678H11.6781C11.8834 20.3679 12.0849 20.3125 12.2614 20.2075C12.4378 20.1024 12.5825 19.9516 12.6803 19.771L14.3003 16.774C14.3003 16.774 16.294 17.5997 17.0075 19.6418C17.1629 20.0865 17.6048 20.3678 18.0758 20.3678H19.2277C19.3874 20.3682 19.5453 20.335 19.6913 20.2703C19.8372 20.2056 19.9679 20.1109 20.0748 19.9923C20.1817 19.8738 20.2625 19.734 20.3118 19.5822C20.3611 19.4303 20.3778 19.2698 20.3609 19.111C20.3023 18.5826 20.1952 18.0348 20.0005 17.7939C20.0005 17.7939 28.631 18.0428 31.3934 17.4454C31.9765 17.319 32.5573 17.6721 32.686 18.2546C32.7486 18.537 32.7856 18.8537 32.7669 19.1868C32.7304 19.8359 33.2526 20.3678 33.9023 20.3678H34.1244C34.7645 20.3678 35.2633 19.9122 35.3049 19.3189C35.3749 18.3258 35.2969 16.8179 34.4234 15.6568C34.4234 15.6568 35.0685 15.0919 35.0566 13.3295" stroke="black" stroke-width="2" stroke-miterlimit="10" stroke-linecap="round" stroke-linejoin="round"/>
<path d="M8.93903 10.1936C8.93903 10.1936 10.1485 8.29906 11.2282 9.99885C11.9565 11.1463 11.0528 12.87 10.3883 13.8699C10.2351 14.0997 10.0071 14.2694 9.74295 14.3499C9.47881 14.4305 9.19492 14.417 8.9396 14.3118V14.3118" stroke="black" stroke-width="2" stroke-miterlimit="10" stroke-linecap="round" stroke-linejoin="round"/>
<path d="M13.6147 8.70101L16.462 6.35205" stroke="black" stroke-width="2" stroke-miterlimit="10" stroke-linecap="round" stroke-linejoin="round"/>
<path d="M15.9637 11.8461L19.3804 10.6742" stroke="black" stroke-width="2" stroke-miterlimit="10" stroke-linecap="round" stroke-linejoin="round"/>
<path d="M19.0245 7.65784L22.4679 6.06738" stroke="black" stroke-width="2" stroke-miterlimit="10" stroke-linecap="round" stroke-linejoin="round"/>
<path d="M20.7459 13.7548L24.6477 13.3295" stroke="black" stroke-width="2" stroke-miterlimit="10" stroke-linecap="round" stroke-linejoin="round"/>
<path d="M25.7866 9.86047L29.7016 10.562" stroke="black" stroke-width="2" stroke-miterlimit="10" stroke-linecap="round" stroke-linejoin="round"/>
<path d="M24.732 7.50125L27.8377 6.07593" stroke="black" stroke-width="2" stroke-miterlimit="10" stroke-linecap="round" stroke-linejoin="round"/>
<path d="M28.2033 13.924L31.7686 14.8789" stroke="black" stroke-width="2" stroke-miterlimit="10" stroke-linecap="round" stroke-linejoin="round"/>
</svg>
