<svg width="63" height="36" viewBox="0 0 63 36" fill="none" xmlns="http://www.w3.org/2000/svg">
<path d="M19.463 5.63799C18.607 7.88799 17.63 8.93199 16.849 9.72399C16.5818 9.99922 16.2226 10.1663 15.8399 10.1932C15.4573 10.2201 15.0781 10.1051 14.775 9.86999L13.591 8.94399L10.167 13.998C9.94434 14.3267 9.64451 14.5958 9.29377 14.7818C8.94302 14.9678 8.55204 15.065 8.15503 15.065C8.15503 15.065 5.48303 18.336 4.55303 21.871C4.29303 22.862 3.67103 23.721 2.84903 24.333L2.46803 24.618C2.46803 24.618 0.118029 26.58 2.92303 27.433C2.92303 27.433 12.546 30.472 17.879 26.222M36.379 1.30499C36.379 1.30499 34.555 2.53199 33.179 2.79399C32.589 2.90699 32.017 3.02399 31.464 3.14399L28.296 2.47199C26.725 4.26699 24.542 5.12199 23.005 5.79599M54.963 7.80499C52.977 7.80499 52.413 7.65199 51.293 6.74799C50.4246 6.04931 49.6889 5.20013 49.121 4.24099L48.713 3.55099C46.072 3.55099 43.246 3.23099 40.665 2.80699M61.254 17.5C58.158 16.346 57.72 13.085 56.696 11.765M15.818 30.745L15.591 31.218C15.4444 31.5229 15.3775 31.8599 15.3965 32.1977C15.4156 32.5355 15.52 32.8629 15.7 33.1493C15.8801 33.4357 16.1298 33.6718 16.4259 33.8354C16.722 33.9991 17.0547 34.0849 17.393 34.085H19.02C19.3806 34.0852 19.7346 33.9879 20.0444 33.8034C20.3542 33.6189 20.6084 33.3541 20.78 33.037L23.625 27.774C23.625 27.774 27.126 29.224 28.379 32.81C28.652 33.591 29.428 34.085 30.255 34.085H32.278C32.5584 34.0857 32.8357 34.0274 33.0921 33.9138C33.3484 33.8002 33.5779 33.6338 33.7656 33.4256C33.9533 33.2174 34.0951 32.972 34.1817 32.7053C34.2682 32.4387 34.2977 32.1568 34.268 31.878C34.165 30.95 33.977 29.988 33.635 29.565C33.635 29.565 48.791 30.002 53.642 28.953C54.666 28.731 55.686 29.351 55.912 30.374C56.022 30.87 56.087 31.426 56.054 32.011C55.99 33.151 56.907 34.085 58.048 34.085H58.438C59.562 34.085 60.438 33.285 60.511 32.243C60.634 30.499 60.497 27.851 58.963 25.812C58.963 25.812 60.096 24.82 60.075 21.725M14.21 16.218C14.21 16.218 16.334 12.891 18.23 15.876C19.509 17.891 17.922 20.918 16.755 22.674C16.4861 23.0775 16.0856 23.3754 15.6218 23.5169C15.1579 23.6584 14.6594 23.6348 14.211 23.45M22.421 13.597L27.421 9.47199M26.546 19.12L32.546 17.062M31.921 11.765L37.968 8.97199M34.944 22.472L41.796 21.725M43.796 15.633L50.671 16.865M41.944 11.49L47.398 8.98699M48.04 22.769L54.301 24.446" stroke="#195557" stroke-width="2" stroke-miterlimit="10" stroke-linecap="round" stroke-linejoin="round"/>
</svg>
