<svg width="69" height="69" viewBox="0 0 69 69" fill="none" xmlns="http://www.w3.org/2000/svg">
<rect width="69" height="69" rx="34.5" fill="url(#paint0_linear_6916_8)"/>
<path d="M39.33 39.48L41.57 37.24C41.8717 36.942 42.2534 36.7381 42.6688 36.6529C43.0842 36.5676 43.5154 36.6049 43.91 36.76L46.64 37.85C47.0388 38.0119 47.3808 38.2882 47.6228 38.6441C47.8648 39 47.9961 39.4196 48 39.85V44.85C47.9977 45.1428 47.9361 45.432 47.8191 45.7004C47.702 45.9688 47.5318 46.2107 47.3188 46.4115C47.1058 46.6124 46.8543 46.7681 46.5796 46.8692C46.3048 46.9704 46.0124 47.0148 45.72 47C26.59 45.81 22.73 29.61 22 23.41C21.9661 23.1055 21.9971 22.7973 22.0908 22.5057C22.1846 22.2141 22.3391 21.9456 22.5441 21.7179C22.7491 21.4903 22.9999 21.3086 23.2802 21.1848C23.5604 21.0611 23.8637 20.9981 24.17 21H29C29.431 21.0013 29.8518 21.1314 30.2082 21.3738C30.5646 21.6162 30.8404 21.9596 31 22.36L32.09 25.09C32.2503 25.483 32.2911 25.9146 32.2075 26.3308C32.124 26.747 31.9196 27.1293 31.62 27.43L29.38 29.67C29.38 29.67 30.67 38.4 39.33 39.48Z" fill="#195557"/>
<defs>
<linearGradient id="paint0_linear_6916_8" x1="7.50003" y1="60.5" x2="8.70121" y2="9.94741" gradientUnits="userSpaceOnUse">
<stop stop-color="#B0D3CE"/>
<stop offset="1" stop-color="#FFEDCE"/>
</linearGradient>
</defs>
</svg>
