<svg width="30" height="30" viewBox="0 0 30 30" fill="none" xmlns="http://www.w3.org/2000/svg">
<path d="M20.465 12.1383C21.0617 11.77 21.46 11.27 21.6533 10.6317C21.1067 10.9276 20.52 11.1426 19.9117 11.27C19.6629 10.9964 19.3583 10.7793 19.0184 10.6335C18.6786 10.4877 18.3114 10.4166 17.9417 10.425C17.1683 10.425 16.5167 10.6967 15.9833 11.2233C15.7264 11.474 15.5232 11.7745 15.3862 12.1063C15.2493 12.4381 15.1814 12.7944 15.1867 13.1533C15.1867 13.3817 15.215 13.5867 15.2733 13.76C12.9933 13.68 11.1083 12.7367 9.62167 10.9167C9.37781 11.3311 9.24733 11.8025 9.24333 12.2833C9.24333 13.2467 9.65 14.01 10.46 14.5717C10.0344 14.5429 9.6197 14.4242 9.24333 14.2233C9.24333 14.9117 9.445 15.4867 9.85167 15.9933C10.2567 16.4933 10.78 16.8133 11.4167 16.9483C11.1797 17.0083 10.9361 17.038 10.6917 17.0367C10.5248 17.0462 10.3577 17.0253 10.1983 16.975C10.3717 17.5367 10.6917 17.99 11.155 18.3383C11.6167 18.6883 12.15 18.8717 12.75 18.8883C11.787 19.654 10.5885 20.0627 9.35833 20.045C9.045 20.045 8.825 20.0417 8.69167 20.0167C9.94109 20.8293 11.4029 21.2544 12.8933 21.2383C14.4783 21.2383 15.88 20.8367 17.0967 20.0333C18.3133 19.235 19.215 18.25 19.7917 17.0883C20.3627 15.9659 20.6602 14.7243 20.66 13.465V13.1167C21.22 12.695 21.675 12.22 22.0233 11.6933C21.5275 11.9144 21.0028 12.0643 20.465 12.1383ZM15 30C10.85 30 7.275 28.5167 4.37333 25.59C1.47167 22.6717 0 19.1083 0 15C0 10.8533 1.47333 7.27667 4.37833 4.375C7.27833 1.47333 10.8517 0 15 0C19.11 0 22.6733 1.47167 25.59 4.37333C28.5167 7.27667 30 10.8533 30 15C30 19.1083 28.5183 22.6733 25.5933 25.595C22.675 28.5167 19.1117 30 15 30ZM15 3.33333C11.7233 3.33333 9.02 4.445 6.73667 6.73333C4.445 9.02 3.33333 11.7233 3.33333 15C3.33333 18.24 4.44667 20.9367 6.73833 23.2417C9.025 25.5467 11.7267 26.6667 15 26.6667C18.2383 26.6667 20.9333 25.545 23.2367 23.2383C25.545 20.9317 26.6667 18.235 26.6667 15C26.6667 11.7283 25.5467 9.025 23.2417 6.73833C20.9367 4.44667 18.2417 3.33333 15 3.33333Z" fill="white"/>
</svg>
